<?xml version="1.0" encoding="UTF-8"?>
<svg id="Layer_1" data-name="Layer 1" xmlns="http://www.w3.org/2000/svg" viewBox="0 0 225 225">
  <defs><style>.cls-1{fill:#fff;}</style></defs>
  <path d="M0,225V0h225v225H0ZM128.83,67.13l-6.79,3.46c-.37-1.7.12-5.45,1.39-7.17-1.9-.86-4.21-4.45-5.16-7.18,4.56.42,6.99.59,10.87.52l-11.86-3.36c-5.77-1.63-10.7-3.35-17.69-2.31l-1.19-14.87,11.11-.16.94,6.94c.97-1.6.95-7.18-.99-8.08-3.72-1.74-8.79-1.36-12.14.46-.46,5.27.13,10.03.57,15.26-1.38.15-4.34.2-4.53,1.21l-.73,4c-7.35,3.5-15.89,7.45-19.83,15.17,14.41-13.46,20.39-13.52,37.11-15.66,3.74-.48,6.24,1.3,6.92,4.69.71,3.56,2.19,7.8,2.55,11.15.84,7.77-4.41,13.99-7.46,20.9,5.65-4.44,7.74-11.69,9.93-18.17,2.71-2.14,5.32-4.31,6.98-6.77ZM104.75,65.03c-.47-.28-3.4,1.09-4.13,2.19s.18,3.92,1.36,4.48,4.52-.03,4.93-1.28c.35-1.07.04-3.93-.26-4.13l-1.91,2.71c-.28.39-1.38-.74-1.19-1.19l1.2-2.79ZM156.94,104.64c0,.34-.8,2.6-.57,2.36l1.31-1.38,1.37-20.83-9.28.54-14.51.84c-.54.03-1.37,1.67-1.23,2.18.47,1.68,1.64-1.34,2.88-1.33l19.59.15.43,17.48ZM105.64,97.91l22.06.12,3.09,4.86.02-11.67-2.79,5.03-17.59-.4.9-4.04-5.69,6.1ZM54.84,113.19l10.9-10.15c.6-.56-1.27-2.6-1.97-2.15l-13.27,8.33,1.04,1.5,5-2.46c-1.19,1.7-2.34,3.8-1.7,4.93ZM56.86,121.9c6.25-4.78,9.92-10.91,11.1-18.15-4.16,6.02-7.73,11.73-11.1,18.15ZM89.58,129.26c.49-5.68.37-9.62-.25-14.33l-.66-4.97-.67.53v20.5s4.07-.28,4.07-.28l-2.49-1.45ZM120.22,126.2c-2.97,1.58-2.74,5.09-1.49,6.38,1,1.04,3.67,1.64,5.15.99s2.37-3.9,1.62-5.44c-.61-1.24-4-2.61-5.27-1.93ZM50.86,145.03c5.49-6.05,15.15-5.39,20.69.36l.29-4.76c-2.65.09-5.43-.07-8.81-.51-7.52-.96-16,1.77-18.6,9.32-1.73,5.04,3.1,9.79,7.82,11.42,4.43,1.53,9.51,1.43,13.85.61-5.86-.59-11.4-.09-15.17-4.23-3.29-3.62-3.8-8.11-.07-12.22ZM86.09,141.45c-4.46-.21-8.99,2.28-10.9,6.79-1.69,3.98.73,8.17,4.07,10.57,5.18,3.72,11.52,3.81,17.55,2.1,5.88-.58,12.9-6.04,9.96-12.69-3.43-7.75-13.17-9.84-20.68-6.78ZM142.87,155.7c2.86-3.99,1.14-9.73-3.2-12.49-7.3-4.64-16.81-4.5-23.95.39-3.32,2.28-5.09,6.36-3.46,10.34,4.19,10.2,23.68,11.42,30.61,1.76Z"/>
  <path d="M96.82,160.92l-8.64-.08c-5.39-.05-8.55-4.18-9.15-8.33-.71-4.88,2.05-9.4,7.07-11.06,2.27-.75,6.95-.69,9.38-.08,4.89,1.23,7.67,4.86,7.97,9.06.33,4.67-2.56,7.95-6.62,10.49Z"/>
  <path class="cls-1" d="M128.83,67.13c-1.65,2.47-4.27,4.64-6.98,6.77-2.19,6.48-4.28,13.73-9.93,18.17,3.06-6.91,8.3-13.13,7.46-20.9-.36-3.36-1.84-7.6-2.55-11.15-.67-3.39-3.18-5.17-6.92-4.69-16.72,2.14-22.7,2.2-37.11,15.66,3.94-7.71,12.48-11.67,19.83-15.17l.73-4c.18-1.01,3.15-1.06,4.53-1.21-.44-5.23-1.03-9.99-.57-15.26,3.35-1.81,8.42-2.2,12.14-.46,1.94.91,1.96,6.48.99,8.08l-.94-6.94-11.11.16,1.19,14.87c6.99-1.04,11.92.68,17.69,2.31l11.86,3.36c-3.88.07-6.31-.1-10.87-.52.95,2.73,3.26,6.32,5.16,7.18-1.28,1.72-1.77,5.47-1.39,7.17l6.79-3.46Z"/>
  <path class="cls-1" d="M142.87,155.7c-6.92,9.67-26.41,8.45-30.61-1.76-1.64-3.98.14-8.07,3.46-10.34,7.13-4.9,16.65-5.03,23.95-.39,4.34,2.76,6.06,8.5,3.2,12.49ZM138.94,156.22c1.59-2.99,1.85-8.21-.4-10.71-5.53-6.17-15.54-6.28-21.14-.04-1.75,1.95-1.97,7.6-.79,9.82,4.25,7.98,18.93,7.32,22.33.93Z"/>
  <path class="cls-1" d="M50.86,145.03c-3.73,4.11-3.21,8.6.07,12.22,3.77,4.15,9.31,3.65,15.17,4.23-4.34.81-9.42.91-13.85-.61-4.72-1.63-9.55-6.38-7.82-11.42,2.6-7.56,11.08-10.29,18.6-9.32,3.38.43,6.16.6,8.81.51l-.29,4.76c-5.54-5.76-15.2-6.41-20.69-.36Z"/>
  <path class="cls-1" d="M96.82,160.92c4.06-2.53,6.95-5.82,6.62-10.49-.29-4.2-3.08-7.83-7.97-9.06-2.42-.61-7.11-.67-9.38.08,7.52-3.07,17.25-.98,20.68,6.78,2.94,6.65-4.08,12.1-9.96,12.69Z"/>
  <path class="cls-1" d="M86.09,141.45c-5.02,1.66-7.78,6.18-7.07,11.06.6,4.14,3.76,8.28,9.15,8.33l8.64.08c-6.03,1.7-12.38,1.61-17.55-2.1-3.34-2.4-5.76-6.6-4.07-10.57,1.91-4.51,6.44-6.99,10.9-6.79Z"/>
  <path class="cls-1" d="M156.94,104.64l-.43-17.48-19.59-.15c-1.24,0-2.42,3.01-2.88,1.33-.14-.51.69-2.15,1.23-2.18l14.51-.84,9.28-.54-1.37,20.83-1.31,1.38c-.23.24.58-2.02.57-2.36Z"/>
  <polygon class="cls-1" points="105.64 97.91 111.33 91.81 110.43 95.84 128.02 96.24 130.81 91.22 130.79 102.89 127.7 98.02 105.64 97.91"/>
  <path class="cls-1" d="M54.84,113.19c-.65-1.13.51-3.24,1.7-4.93l-5,2.46-1.04-1.5,13.27-8.33c.71-.44,2.57,1.59,1.97,2.15l-10.9,10.15Z"/>
  <path class="cls-1" d="M120.22,126.2c1.28-.68,4.67.69,5.27,1.93.75,1.54-.1,4.77-1.62,5.44s-4.14.05-5.15-.99c-1.25-1.29-1.47-4.8,1.49-6.38Z"/>
  <path class="cls-1" d="M56.86,121.9c3.36-6.42,6.94-12.13,11.1-18.15-1.18,7.24-4.84,13.37-11.1,18.15Z"/>
  <path class="cls-1" d="M89.58,129.26l2.49,1.45-4.07.28v-20.5s.67-.53.67-.53l.66,4.97c.63,4.72.75,8.65.25,14.33Z"/>
  <path class="cls-1" d="M104.75,65.03l-1.2,2.79c-.19.44.91,1.58,1.19,1.19l1.91-2.71c.3.21.61,3.06.26,4.13-.41,1.25-3.74,1.83-4.93,1.28s-2.08-3.39-1.36-4.48,3.66-2.47,4.13-2.19Z"/>
  <path d="M138.94,156.22c-3.4,6.39-18.08,7.05-22.33-.93-1.18-2.22-.96-7.87.79-9.82,5.6-6.24,15.61-6.13,21.14.04,2.25,2.51,1.99,7.72.4,10.71Z"/>
</svg>
